#tb 0: 1/25
0,          0,          0,        1,   152064, 7f952fd8bd40c32197afc21e2fa66404
0,          1,          1,        1,   152064, 5b2cc25b04d9a9d33bcf5fe480505d68
0,          2,          2,        1,   152064, 56d6bb0022f68fbccae81ef054a88c9a
0,          3,          3,        1,   152064, e9185c3ef0d3886f1a39b83f84da767e
0,          4,          4,        1,   152064, cac301c833ad7a916acfae8fd5e524e9
0,          5,          5,        1,   152064, cd050aba9e0681e15294480188f4076a
0,          6,          6,        1,   152064, 6451e141b4d6360dd7bf098fa235afc7
0,          7,          7,        1,   152064, ac242e1eb5389ce7a6ecfc34c8594383
0,          8,          8,        1,   152064, d35ed5d3c1542a08881fc3aa729e5308
0,          9,          9,        1,   152064, 4049e48c807e9d39b1ac03d5b9cc4647
0,         10,         10,        1,   152064, 2c39818c50ab18982da8e29b1a95d574
0,         11,         11,        1,   152064, adba30adcdaf3c52bb6c2595753f3bf1
0,         12,         12,        1,   152064, 77ba6ff6f1e7380c84e4ef635dad5414
0,         13,         13,        1,   152064, 8ee39ce5454533b610c680ef8944c369
0,         14,         14,        1,   152064, 1785d1de2383fff0f6ba133ece182003
0,         15,         15,        1,   152064, fe7d8c8a7ace0dabc550d6672e8e9c15
0,         16,         16,        1,   152064, d751ad4771ab30290f01afc9c15d93ff
0,         17,         17,        1,   152064, 3a0f3e1dd11527ce6660bc5a3c846f5e
0,         18,         18,        1,   152064, 5db4cb8d1403a296d1346bc0aac7e6e6
0,         19,         19,        1,   152064, fb8f602708055e1436b473bd00abf646
0,         20,         20,        1,   152064, dcad983fe9d87b9597e893d05352d865
0,         21,         21,        1,   152064, 2541aefc80d4598ab64ea8591dcf79de
0,         22,         22,        1,   152064, a80f92f508833eecd69c7f8dd21da13f
0,         23,         23,        1,   152064, 6e28ef4f6e1151861929e46afc0aad5f
0,         24,         24,        1,   152064, a9104c687097adc9d68751e508940bcc
0,         25,         25,        1,   152064, 65e90aa73b8228bda909775914453dc2
0,         26,         26,        1,   152064, 3c068b06d02b5e4110732700b1aa146b
0,         27,         27,        1,   152064, 48f3ec3807d333774c3d031c5a9cdc50
0,         28,         28,        1,   152064, 0d74aaa8ee4a88b4983b3e505938c962
0,         29,         29,        1,   152064, ff1ec9697579f47fc647f56d85591207
0,         30,         30,        1,   152064, 8052dd9c27296a2d5b2101d97af62d8e
0,         31,         31,        1,   152064, 7a253ee1c0e0aadd3e12bfb1278299fb
0,         32,         32,        1,   152064, b24126f3573811d8d6dc6db674ca8c64
0,         33,         33,        1,   152064, b3f54900ec9a60f9d63387a24500a13e
0,         34,         34,        1,   152064, 5de1ae2d5b66906ef01190ea8dad606f
0,         35,         35,        1,   152064, d5b5458eee09aac711a2c17b7cfdc40c
0,         36,         36,        1,   152064, 94c08ac166465b9dbfed1cb67eeb3bc3
0,         37,         37,        1,   152064, 1b1ccbe8316f625b56d94cff1d209434
0,         38,         38,        1,   152064, 703a29b3efd7513370c8f7ca37730d1f
0,         39,         39,        1,   152064, c15f1fa6c7d595919d11f4142f1a6878
0,         40,         40,        1,   152064, 8c6ef06f585061acdd66380493ea5c00
0,         41,         41,        1,   152064, 35771c1c43232ba6ea87bd9d6e638b03
0,         42,         42,        1,   152064, 01612e4027837fdce2f0ce8cc4a46be7
0,         43,         43,        1,   152064, 02f1d688df26b1421079a72fe0d62c70
0,         44,         44,        1,   152064, 7a5c70e39a65101e9622ebeaf62cfac8
0,         45,         45,        1,   152064, 27af67aecb0500ead2a9a55e6365afb0
0,         46,         46,        1,   152064, d4105deee590978600eb964e54a6bfa2
0,         47,         47,        1,   152064, 7aa99b69eb5b2cc85ea99e246d378260
0,         48,         48,        1,   152064, dd008e25da59d3260d089a9e3f5ca07c
0,         49,         49,        1,   152064, c76ea53f0ac9a0cc5626c0b24d818e33
0,         50,         50,        1,   152064, 89735f9e0d3be100be93d399472815d5
0,         51,         51,        1,   152064, e6ceaa7d2df6e7d1f0833cd0efc10762
0,         52,         52,        1,   152064, 619768d16aed503750e36e6ad1e7da49
0,         53,         53,        1,   152064, b0a262a526be1363c1cdae34cb963500
0,         54,         54,        1,   152064, 367f1f0f8e7f16b60d579611705bdaf7
0,         55,         55,        1,   152064, 32013ef82c20af9a5701ac822e758995
0,         56,         56,        1,   152064, ed37bcd10044179ff15313ac638a6cb9
0,         57,         57,        1,   152064, 7f396f585d454a828949a82994c07e55
0,         58,         58,        1,   152064, 203cd9b81f324784f2d06ae5596cc141
0,         59,         59,        1,   152064, c81977bf1603b3889285125e8fa869ab
0,         60,         60,        1,   152064, a915aac53d793ff7af3c6c073a22ab4a
0,         61,         61,        1,   152064, e100fbd898f4263eadf11f9c48b16154
0,         62,         62,        1,   152064, 83a6ddeba2a921a8c30ce4186ae85171
0,         63,         63,        1,   152064, ec3d156b338d5ed1c73467ba827780eb
0,         64,         64,        1,   152064, aca73a9b00ca3e79a6915f0af8ea21c3
0,         65,         65,        1,   152064, 8575798a21a4417f368525b193b1b91b
0,         66,         66,        1,   152064, d149f32e2f7ac054d70525f2a6a95eb7
0,         67,         67,        1,   152064, 86afd4fc9c7daaa3493e7b3690f6cfd3
0,         68,         68,        1,   152064, 5d9e18798bb214ddf1db5b52596f564c
0,         69,         69,        1,   152064, 7dc13fe68442967746a29a83b460aacd
0,         70,         70,        1,   152064, cc53daafdf5123591c23ae81098c1910
0,         71,         71,        1,   152064, 3e67307e26dcfc3a3670b605e2807e8d
0,         72,         72,        1,   152064, 204a839741780015879f69e5d1a14ee9
0,         73,         73,        1,   152064, c2190591032c3a78271565a2ef2b775e
0,         74,         74,        1,   152064, 3e998a8508082402bd8fb3f233b54090
0,         75,         75,        1,   152064, 1a8aa4f4b3762550becdc410ec15aa1e
0,         76,         76,        1,   152064, 8942b68b03d47ad70fdfab7bdd6ba6e3
0,         77,         77,        1,   152064, 1dc3a0d8f8f9e21838a3076d37f7440e
0,         78,         78,        1,   152064, b741149b65ab4d546589ddd86eab0974
0,         79,         79,        1,   152064, ae613ac4352122303830630aa1659bf3
0,         80,         80,        1,   152064, 9d63f03904c4ba2d6ba9f5064fb876c0
0,         81,         81,        1,   152064, 558613ee2d0067463955a3e0ad53300c
0,         82,         82,        1,   152064, b7dc3958e008647203699ba33eee87fa
0,         83,         83,        1,   152064, edaa3e3518609d3e74992333a82e7112
0,         84,         84,        1,   152064, 52a6a70676e436a33ee895d84ad596bc
0,         85,         85,        1,   152064, 0e2a16eb0f92f36a8850ef1bf0036666
0,         86,         86,        1,   152064, ae7a1bbd95a3720abe058188332c23d5
0,         87,         87,        1,   152064, b5a96ba8cdd239f71ea3b8ba9dff2d5b
0,         88,         88,        1,   152064, 779ddc0e67b4ae2680b2cbcf7677c455
0,         89,         89,        1,   152064, d21d0d06a337c3f15a0a14bfc690314f
0,         90,         90,        1,   152064, ad8dbde040a9d7e908b378b6ff239197
0,         91,         91,        1,   152064, 558f727ae629c902aacec1adde0b93bf
0,         92,         92,        1,   152064, c1eb3c2cad922e3485a1dae690fa30bc
0,         93,         93,        1,   152064, 0070fda686af92eaca687066ae74c31a
0,         94,         94,        1,   152064, 363328969fd103a7860e109267211547
0,         95,         95,        1,   152064, 2def2821815115bb3c0574c686c68231
0,         96,         96,        1,   152064, 08c93e6efc9148b1903dc5bbb999594d
0,         97,         97,        1,   152064, 7611bd388d2ca03b2bbe0b8659cc15f5
0,         98,         98,        1,   152064, 8f41948219f2366883896f51b208a93a
0,         99,         99,        1,   152064, efa7e5d74dbdff7cdca512c0abf7e0cd
0,        100,        100,        1,   152064, 9764d3ab383ef0964149f1e22376a8c6
0,        101,        101,        1,   152064, c6c28e349ca4dc37d5862419e35f0786
0,        102,        102,        1,   152064, 7a4a7315a5c4b76f8ee4704a48ec9f4d
0,        103,        103,        1,   152064, f3336a5107afcf7a797826c9bfa791d2
0,        104,        104,        1,   152064, ef25146735a0250b737a359bd29c35fd
0,        105,        105,        1,   152064, 8b0979747f36694dd0f9d16c545f777b
0,        106,        106,        1,   152064, 23911162849aedca0136528e30784c2f
0,        107,        107,        1,   152064, 8390350c4d3065e52ba42189019889a4
0,        108,        108,        1,   152064, 228a4f65158409f984d334e80cabe978
0,        109,        109,        1,   152064, 3eb67bba80c7bbea6cce099f666a2ede
0,        110,        110,        1,   152064, 437966de7c15a11fdcea5c544204a0f4
0,        111,        111,        1,   152064, bbfbb8008f1e7b002aab021082bf59c6
0,        112,        112,        1,   152064, 388b81b3b7d6efa9e1fe2481308f23c7
0,        113,        113,        1,   152064, efabd9424c4541c04eed3c8ba95d0596
0,        114,        114,        1,   152064, 86ad8a0772ffaca7c23284625a7cbcee
0,        115,        115,        1,   152064, 9d7988d07bcfd36442fbf2d8e5e101f4
0,        116,        116,        1,   152064, 80770b3dbf125e02167e79324ad1cd91
0,        117,        117,        1,   152064, b9479f64fe9fbd98ae9abab1a6312ae8
0,        118,        118,        1,   152064, d6c209d64d1d7126a7ec034bea9ff90d
0,        119,        119,        1,   152064, 14f93282da9b72f6b5ad48a7adbe123e
0,        120,        120,        1,   152064, 12a54bf2592e25a18c706164b6ec101d
0,        121,        121,        1,   152064, cb352e89039a04a8f16620107e8d9014
0,        122,        122,        1,   152064, c8e116f3f3366f50bf70a51cc93be7e7
0,        123,        123,        1,   152064, 8d7eb47f6b233a92151f2775d1978f0e
0,        124,        124,        1,   152064, 5cfab1f17edf8a84f34a349d6794f032
0,        125,        125,        1,   152064, 6ebec5f5e1fb1edc4063be265314ad8f
0,        126,        126,        1,   152064, a49875c669e23e24ea17f2de189b21d3
0,        127,        127,        1,   152064, 5c8d5b347ecccecb0bae9745ac6b45f0
0,        128,        128,        1,   152064, b6dc1815dc30eaaab5df0554f0a5b56e
0,        129,        129,        1,   152064, 509a0ac070524f8c719a3c4d79fb76e5
0,        130,        130,        1,   152064, ad13dcf1552d26a87d17101036b45c52
0,        131,        131,        1,   152064, 2620e7fb141063ca4fbad4439f32dae7
0,        132,        132,        1,   152064, 18d34d054c41a1423d969344af80fac4
0,        133,        133,        1,   152064, 8599dccbb02cc59563b5afea6c193acd
0,        134,        134,        1,   152064, b53d42b366b8d7cbb4af52f8840630e4
0,        135,        135,        1,   152064, 11747b80047ff5599dda6f9f0417478e
0,        136,        136,        1,   152064, 10f68820f282a0e89b58a1657bcf6fa8
0,        137,        137,        1,   152064, ca0f0c0ca11c703f16cf190d52971a2a
0,        138,        138,        1,   152064, b6fb4d3ce986c503cac8ae21ad72313b
0,        139,        139,        1,   152064, 194b3f779eaddadf563b447b7b579d3c
0,        140,        140,        1,   152064, 6c248256e677d7d374b2ca2cc42f58e7
0,        141,        141,        1,   152064, dd358dcc4e3f750b2bcc96db0c3293c7
0,        142,        142,        1,   152064, eb0d082f192d46bc4188b892e2812eb6
0,        143,        143,        1,   152064, f539f619df45340677c6a80db65f1795
0,        144,        144,        1,   152064, 9d274ccc0a6e7bc52065f6d413b82d2f
0,        145,        145,        1,   152064, 18b950f15cc925d25e3ce823dea4c265
0,        146,        146,        1,   152064, 38573a7cdfc3fdd7110ed6682d57e2b6
0,        147,        147,        1,   152064, e41c4605b77dc0286314b318865375b7
0,        148,        148,        1,   152064, 5080b5b6bc48d21c6445b98f42ae72e8
0,        149,        149,        1,   152064, afc35d2de20b972087e40dbb597c888a
